<?xml version="1.0" encoding="UTF-8" standalone="no"?>
<svg width="36px" height="36px" viewBox="0 0 36 36" version="1.1" xmlns="http://www.w3.org/2000/svg" xmlns:xlink="http://www.w3.org/1999/xlink">
    <!-- Generator: Sketch 3.6.1 (26313) - http://www.bohemiancoding.com/sketch -->
    <title>vibze-pharmacy</title>
    <desc>Created with Sketch.</desc>
    <defs></defs>
    <g id="Page-1" stroke="none" stroke-width="1" fill="none" fill-rule="evenodd">
        <g id="vibze-pharmacy">
            <circle id="Oval-1" stroke="#00B01A" stroke-width="2" fill="#00B01A" cx="18" cy="18" r="15.3808594"></circle>
            <path d="M23.7136889,11.7042707 L21.0032685,11.7042707 L21.0032685,10.6448463 C21.0032685,8.92752467 19.6057394,7.53021891 17.8881945,7.53021891 C16.1708729,7.53021891 14.7737905,8.92730135 14.7737905,10.6448463 L14.7737905,11.7042707 L12.0633701,11.7042707 L10.1982115,27.6152889 L25.5790708,27.6152889 L23.7136889,11.7042707 L23.7136889,11.7042707 Z M20.5615439,12.862402 C20.8056314,12.862402 21.0034918,13.0602625 21.0034918,13.3043499 C21.0034918,13.5484374 20.8056314,13.7462978 20.5615439,13.7462978 C20.3174565,13.7462978 20.119596,13.5484374 20.119596,13.3043499 C20.119596,13.0602625 20.3174565,12.862402 20.5615439,12.862402 L20.5615439,12.862402 Z M15.6670657,10.6448463 C15.6670657,9.42016595 16.6635142,8.42349413 17.8881945,8.42349413 C19.1133215,8.42349413 20.1099933,9.41994263 20.1099933,10.6448463 L20.1099933,11.7042707 L15.6670657,11.7042707 L15.6670657,10.6448463 L15.6670657,10.6448463 Z M15.2251178,12.862402 C15.4692052,12.862402 15.6670657,13.0602625 15.6670657,13.3043499 C15.6670657,13.5484374 15.4692052,13.7462978 15.2251178,13.7462978 C14.9810303,13.7462978 14.7831699,13.5484374 14.7831699,13.3043499 C14.7831699,13.0602625 14.9810303,12.862402 15.2251178,12.862402 L15.2251178,12.862402 Z M21.5072991,21.1799109 L19.0945627,21.1799109 L19.0945627,23.5948805 L16.6827196,23.5948805 L16.6827196,21.1799109 L14.2697599,21.1803575 L14.2697599,18.7680678 L16.6827196,18.7680678 L16.6827196,16.3562247 L19.0945627,16.3562247 L19.0945627,18.7678445 L21.5072991,18.7678445 L21.5072991,21.1799109 L21.5072991,21.1799109 Z" id="Shape" fill="#FFFFFF"></path>
        </g>
    </g>
</svg>