<?xml version="1.0" encoding="UTF-8" standalone="no"?>
<svg width="36px" height="36px" viewBox="0 0 36 36" version="1.1" xmlns="http://www.w3.org/2000/svg" xmlns:xlink="http://www.w3.org/1999/xlink">
    <!-- Generator: Sketch 3.6.1 (26313) - http://www.bohemiancoding.com/sketch -->
    <title>vibze-school</title>
    <desc>Created with Sketch.</desc>
    <defs></defs>
    <g id="Page-1" stroke="none" stroke-width="1" fill="none" fill-rule="evenodd">
        <g id="vibze-school">
            <circle id="Oval-1" stroke="#5094FF" stroke-width="2" fill="#5194FF" cx="18" cy="18" r="15.2822266"></circle>
            <path d="M11.475413,8.78216451 C10.9613844,8.78216451 10.5475633,9.19598584 10.5475633,9.71001502 L10.5475633,26.4113365 C10.5475633,26.9253656 10.9613842,27.339187 11.475413,27.339187 L24.0529276,27.339187 C24.5669564,27.339187 24.9807773,26.9253656 24.9807773,26.4113365 L24.9807773,9.71001502 C24.9807773,9.19598584 24.5669564,8.78216451 24.0529276,8.78216451 L11.475413,8.78216451 Z M15.4445463,11.565714 L20.0837947,11.565714 C20.3408091,11.565714 20.5477196,11.7726246 20.5477196,12.0296392 C20.5477196,12.2866538 20.3408091,12.4935624 20.0837947,12.4935624 L15.4445463,12.4935624 C15.1875319,12.4935624 14.9806213,12.2866538 14.9806213,12.0296392 C14.9806213,11.7726246 15.1875319,11.565714 15.4445463,11.565714 L15.4445463,11.565714 Z M15.4445463,13.4214129 L20.0837947,13.4214129 C20.3408091,13.4214129 20.5477196,13.6283236 20.5477196,13.8853382 C20.5477196,14.1423527 20.3408091,14.3492634 20.0837947,14.3492634 L15.4445463,14.3492634 C15.1875319,14.3492634 14.9806213,14.1423527 14.9806213,13.8853382 C14.9806213,13.6283236 15.1875319,13.4214129 15.4445463,13.4214129 L15.4445463,13.4214129 Z M13.4599811,16.2484559 L22.0683595,16.2484559 C22.1968668,16.2484559 22.3003219,16.3519112 22.3003219,16.4804164 C22.3003219,16.6089237 22.1968668,16.7123791 22.0683595,16.7123791 L13.4599811,16.7123791 C13.331474,16.7123791 13.2280187,16.6089237 13.2280187,16.4804164 C13.2280187,16.3519112 13.331474,16.2484559 13.4599811,16.2484559 L13.4599811,16.2484559 Z M13.4599811,17.6402419 L22.0683595,17.6402419 C22.1968668,17.6402419 22.3003219,17.743687 22.3003219,17.8722046 C22.3003219,18.0007015 22.1968668,18.1041672 22.0683595,18.1041672 L13.4599811,18.1041672 C13.331474,18.1041672 13.2280187,18.0007015 13.2280187,17.8722046 C13.2280187,17.743687 13.331474,17.6402419 13.4599811,17.6402419 L13.4599811,17.6402419 Z M13.4599811,19.0320177 L22.0683595,19.0320177 C22.1968668,19.0320177 22.3003219,19.1354627 22.3003219,19.2639803 C22.3003219,19.3924773 22.1968668,19.4959429 22.0683595,19.4959429 L13.4599811,19.4959429 C13.331474,19.4959429 13.2280187,19.3924773 13.2280187,19.2639803 C13.2280187,19.1354627 13.331474,19.0320177 13.4599811,19.0320177 L13.4599811,19.0320177 Z M17.7641705,21.3951498 C18.5328244,21.3951498 19.155945,22.0182736 19.155945,22.7869256 C19.155945,23.1768908 18.9939423,23.5273297 18.7355131,23.7799937 L19.3516749,25.0920568 L18.7862432,24.9760754 L18.5108112,25.483486 L17.8946494,24.1714641 C17.8524089,24.1751755 17.8074315,24.1786807 17.7641705,24.1786807 C17.7209094,24.1786807 17.6759319,24.1753817 17.6336916,24.1714641 L17.0175298,25.483486 L16.7420976,24.9760754 L16.1766659,25.0920568 L16.7928277,23.7799937 C16.5343985,23.5273297 16.372396,23.1768908 16.372396,22.7869256 C16.372396,22.0182736 16.9955165,21.3951498 17.7641705,21.3951498 L17.7641705,21.3951498 Z M17.7641705,22.3230003 C17.5079448,22.3230003 17.3002457,22.5306945 17.3002457,22.7869256 C17.3002457,23.0431566 17.5079448,23.2508508 17.7641705,23.2508508 C18.0203962,23.2508508 18.2280954,23.0431566 18.2280954,22.7869256 C18.2280954,22.5306945 18.0203962,22.3230003 17.7641705,22.3230003 L17.7641705,22.3230003 Z" id="Shape" fill="#FFFFFF"></path>
        </g>
    </g>
</svg>