<?xml version="1.0" encoding="UTF-8" standalone="no"?>
<svg width="36px" height="36px" viewBox="0 0 36 36" version="1.1" xmlns="http://www.w3.org/2000/svg" xmlns:xlink="http://www.w3.org/1999/xlink">
    <!-- Generator: Sketch 3.6.1 (26313) - http://www.bohemiancoding.com/sketch -->
    <title>vibze-kindergarten</title>
    <desc>Created with Sketch.</desc>
    <defs></defs>
    <g id="Page-1" stroke="none" stroke-width="1" fill="none" fill-rule="evenodd">
        <g id="vibze-kindergarten">
            <circle id="Oval-1" stroke="#BFB900" stroke-width="2" fill="#BFB900" cx="18" cy="18" r="15.2197266"></circle>
            <g id="Group" transform="translate(5.316895, 8.699056)" fill="#FFFFFF">
                <path d="M19.2604886,12.5131407 C19.833112,12.3452787 20.2537893,11.8076597 20.2537893,11.1707564 C20.2537893,10.3997682 19.6384703,9.77284454 18.8820047,9.77284454 C18.1252879,9.77284454 17.5099689,10.3997682 17.5099689,11.1707564 C17.5099689,11.8074038 17.930395,12.3450228 18.5030184,12.5131407 C17.816875,12.6866323 17.3060346,13.3173942 17.3060346,14.0691909 L17.3060346,16.2327173 L17.6774864,16.2327173 L17.8834299,16.2327173 L17.8834299,19.2941519 L18.6265845,19.2941519 L18.6265845,16.2327173 L19.1361691,16.2327173 L19.1361691,19.2941519 L19.8793237,19.2941519 L19.8793237,16.2327173 L20.0852672,16.2327173 L20.4567189,16.2327173 L20.4567189,14.0691909 C20.4572212,13.3173942 19.9463809,12.6866323 19.2604886,12.5131407 L19.2604886,12.5131407 Z M18.8820047,11.811498 C18.5349145,11.811498 18.2531235,11.5241366 18.2531235,11.1710123 C18.2531235,10.817632 18.5349145,10.5305266 18.8820047,10.5305266 C19.2285925,10.5305266 19.5106346,10.817632 19.5106346,11.1710123 C19.5106346,11.5241366 19.2285925,11.811498 18.8820047,11.811498 L18.8820047,11.811498 Z" id="Shape"></path>
                <path d="M24.7064383,15.037724 L24.7064383,13.8445219 C24.7064383,13.2224601 24.2920398,12.7024973 23.7314717,12.5415442 C24.312383,12.3803353 24.7413482,11.8396456 24.7413482,11.1971128 C24.7413482,10.4284276 24.127285,9.80303923 23.3728286,9.80303923 C22.6183722,9.80303923 22.0040578,10.4284276 22.0040578,11.1971128 C22.0040578,11.4151287 22.0547902,11.6206061 22.1426929,11.804589 C22.0999973,11.7813033 22.047758,11.7646706 21.9794451,11.7626235 C21.6466705,11.7521322 21.4688559,12.2792598 21.3832135,12.4197419 C21.62256,12.5607358 22.3039316,12.5763449 22.3039316,12.0932298 C22.3039316,12.0868326 22.3034293,12.0763413 22.3021736,12.063291 C22.481244,12.292566 22.7291296,12.4624751 23.0139344,12.5415442 C22.4533662,12.7024973 22.0387166,13.2224601 22.0387166,13.8445219 L22.03947,15.0287679 L21.4537868,17.3366147 L22.3770165,17.3366147 L22.3770165,19.2941519 L23.1201711,19.2941519 L23.1201711,17.3366147 L23.6254861,17.3366147 L23.6254861,19.2941519 L24.3686407,19.2941519 L24.3686407,17.3366147 L25.2916192,17.3366147 L24.7064383,15.037724 L24.7064383,15.037724 Z M22.7504774,11.230634 C22.923269,11.1582179 23.1515649,11.0353921 23.3454532,10.8442443 C23.5157333,10.9885647 23.738755,11.1088317 23.9926683,11.1415853 C23.9941752,11.160265 23.9981936,11.178433 23.9981936,11.1973687 C23.9981936,11.5487018 23.7176584,11.8347837 23.3728286,11.8347837 C23.0390494,11.8347837 22.7678068,11.566358 22.7504774,11.230634 L22.7504774,11.230634 Z M22.4141867,16.5797004 L22.7670533,15.1915122 L22.7816201,13.8447778 C22.7816201,13.5128921 23.046584,13.2426752 23.3723263,13.2426752 C23.6980686,13.2426752 23.9632837,13.5128921 23.9632837,13.8447778 L23.9640371,15.0748276 L24.3309682,16.5797004 L22.4141867,16.5797004 L22.4141867,16.5797004 Z" id="Shape"></path>
                <path d="M2.20309309,12.5131407 C2.77571647,12.3452787 3.19639373,11.8076597 3.19639373,11.1707564 C3.19639373,10.3997682 2.58107475,9.77284454 1.82460913,9.77284454 C1.06814352,9.77284454 0.452824538,10.3997682 0.452824538,11.1707564 C0.452824538,11.8074038 0.873250648,12.3450228 1.44587402,12.5131407 C0.759730575,12.6866323 0.248890248,13.3173942 0.248890248,14.0691909 L0.248890248,16.2339967 L0.826787786,16.2339967 L0.826787786,19.2941519 L1.56969127,19.2941519 L1.56969127,16.2339967 L0.992044883,16.2339967 L0.992044883,14.0691909 C0.992044883,13.6016849 1.36550583,13.2214365 1.82435798,13.2214365 C2.28321013,13.2214365 2.65692223,13.6016849 2.65692223,14.0691909 L2.65692223,16.2339967 L2.07927585,16.2339967 L2.07927585,19.2941519 L2.82243048,19.2941519 L2.82243048,16.2329732 L3.40007687,16.2329732 L3.40007687,14.0691909 C3.39957457,13.3173942 2.88923654,12.6866323 2.20309309,12.5131407 L2.20309309,12.5131407 Z M1.19572802,11.1707564 C1.19572802,10.8173762 1.47777015,10.5302707 1.82435798,10.5302707 C2.17094582,10.5302707 2.45298794,10.8173762 2.45298794,11.1707564 C2.45298794,11.5238808 2.17094582,11.8112421 1.82435798,11.8112421 C1.47777015,11.811498 1.19572802,11.5241366 1.19572802,11.1707564 L1.19572802,11.1707564 Z" id="Shape"></path>
                <path d="M7.81003031,13.8447778 C7.81003031,13.222716 7.39563182,12.7027532 6.83506367,12.5418001 C7.41597502,12.3805912 7.84494025,11.8399015 7.84494025,11.1973687 C7.84494025,10.4286835 7.23112817,9.80329512 6.47642061,9.80329512 C5.72171305,9.80329512 5.10790097,10.4286835 5.10790097,11.1973687 C5.10790097,11.4153846 5.15863339,11.620862 5.2465361,11.8048449 C5.2038405,11.7815592 5.15160118,11.7649265 5.08328821,11.7628794 C4.75051366,11.752388 4.57269904,12.2795157 4.48705668,12.4199978 C4.7264032,12.5609916 5.40777479,12.5766008 5.40777479,12.0934857 C5.40777479,12.0870885 5.40727249,12.0765971 5.40601674,12.0635469 C5.58483597,12.2928218 5.83297276,12.4627309 6.11777755,12.5418001 C5.55746055,12.7027532 5.1428109,13.222716 5.1428109,13.8447778 L5.14356436,15.0290238 L4.55788115,17.3368706 L5.48111077,17.3368706 L5.48111077,19.2944078 L6.2242654,19.2944078 L6.2242654,17.3368706 L6.72958042,17.3368706 L6.72958042,19.2944078 L7.47273505,19.2944078 L7.47273505,17.3368706 L8.39546237,17.3368706 L7.81078376,15.0379799 L7.81078376,13.8447778 L7.81003031,13.8447778 Z M6.47616946,11.8347837 C6.14239031,11.8347837 5.8713988,11.566358 5.85406941,11.230634 C6.02686103,11.1582179 6.25515693,11.0353921 6.44904519,10.8442443 C6.61957645,10.9885647 6.84234704,11.1088317 7.0962603,11.1415853 C7.0977672,11.160265 7.10178561,11.178433 7.10178561,11.1973687 C7.10153446,11.5487018 6.82099924,11.8347837 6.47616946,11.8347837 L6.47616946,11.8347837 Z" id="Shape"></path>
                <path d="M15.427177,10.2275561 L15.427177,7.6359304 C15.427177,6.11263381 14.2106034,4.87362791 12.7152527,4.87362791 C11.2206555,4.87362791 10.004082,6.11288969 10.004082,7.6359304 L10.004082,10.2275561 L10.7148382,10.2275561 L9.73685774,15.4612173 L11.6174735,15.4612173 L11.6174735,19.2944078 L12.3606281,19.2944078 L12.3606281,15.4612173 L13.1037827,15.4612173 L13.1037827,19.2944078 L13.8469374,19.2944078 L13.8469374,15.4612173 L15.6933966,15.4612173 L14.7159185,10.2275561 L15.427177,10.2275561 L15.427177,10.2275561 Z M12.7155039,5.63054229 C12.8415815,5.63054229 12.9643941,5.64384843 13.0839418,5.66713416 C13.0656078,5.8585378 12.9086387,6.00925537 12.715755,6.00925537 C12.5231225,6.00925537 12.3661534,5.8585378 12.3480706,5.66713416 C12.4671159,5.64384843 12.5896774,5.63054229 12.7155039,5.63054229 L12.7155039,5.63054229 Z M14.6840223,10.2088764 L10.7474878,10.2088764 L10.7474878,7.6359304 C10.7474878,6.9294258 11.1088935,6.30838753 11.6521322,5.95116897 C11.7890093,6.42046613 12.2111935,6.76616975 12.715755,6.76616975 C13.2203166,6.76616975 13.6427519,6.42072201 13.779629,5.95142486 C14.3228678,6.30864341 14.6842735,6.92968169 14.6842735,7.6359304 L14.6842735,10.2088764 L14.6840223,10.2088764 Z" id="Shape"></path>
                <path d="M16.3981252,2.77765573 C16.1567695,2.43067266 15.7529193,1.85006457 15.1576924,1.85006457 C15.1021881,1.85006457 15.0459303,1.85518231 14.9891703,1.86618546 C14.9582788,1.87232676 14.9339172,1.88384168 14.905286,1.89177418 C14.6516239,0.88409033 13.7550162,0.136131999 12.6881285,0.136131999 C11.4245898,0.136131999 10.3968815,1.18322248 10.3968815,2.47033518 C10.3968815,3.75770376 11.4248409,4.80479425 12.6881285,4.80479425 C13.5387756,4.80479425 14.2809256,4.32909991 14.6762367,3.62592185 C14.86033,3.74465351 15.0913886,3.81195185 15.363887,3.81195185 C15.7619607,3.81195185 16.1999674,3.67070211 16.4533783,3.46010693 L16.7504895,3.21394343 L16.5000923,2.91916136 C16.4732192,2.88691957 16.4390627,2.83676567 16.3981252,2.77765573 L16.3981252,2.77765573 Z M13.185909,0.978512712 C13.4674488,1.07626163 13.7128229,1.25384736 13.8954094,1.48568117 C13.5646441,1.45011285 13.2479432,1.35210805 13.0465204,1.26203575 C13.1015224,1.15533078 13.1469806,1.06142017 13.185909,0.978512712 L13.185909,0.978512712 Z M11.139785,2.47033518 C11.139785,1.70548829 11.6772473,1.06653791 12.3875012,0.923496961 C12.0695445,1.53864983 11.6011487,2.20600369 11.1407896,2.49259737 C11.1407896,2.48517664 11.139785,2.4780118 11.139785,2.47033518 L11.139785,2.47033518 Z M12.6881285,4.04762398 C12.1089752,4.04762398 11.6036602,3.72136778 11.338194,3.24029981 C11.875154,2.98262139 12.33049,2.43911694 12.6687899,1.91531581 C13.0573199,2.11106953 13.626176,2.25487814 14.1493227,2.25487814 C14.173182,2.25487814 14.1960367,2.25257516 14.2196449,2.25206338 C14.2294397,2.3237118 14.2362208,2.39612789 14.2362208,2.47033518 C14.2362208,3.34035171 13.5417894,4.04762398 12.6881285,4.04762398 L12.6881285,4.04762398 Z M15.363887,3.05478158 C15.0115227,3.05478158 14.9846496,2.88640779 14.9738501,2.81629469 C14.9504931,2.64485026 15.0665247,2.6220763 15.1290612,2.60979371 C15.1383538,2.6080025 15.1481486,2.60697895 15.1574412,2.60697895 C15.3091362,2.60697895 15.5050336,2.82704196 15.6499475,3.0184456 C15.5615425,3.0404519 15.4640961,3.05478158 15.363887,3.05478158 L15.363887,3.05478158 Z" id="Shape"></path>
            </g>
        </g>
    </g>
</svg>