<?xml version="1.0" encoding="UTF-8" standalone="no"?>
<svg width="36px" height="36px" viewBox="0 0 36 36" version="1.1" xmlns="http://www.w3.org/2000/svg" xmlns:xlink="http://www.w3.org/1999/xlink">
    <!-- Generator: Sketch 3.6.1 (26313) - http://www.bohemiancoding.com/sketch -->
    <title>vibze-hospital</title>
    <desc>Created with Sketch.</desc>
    <defs></defs>
    <g id="Page-1" stroke="none" stroke-width="1" fill="none" fill-rule="evenodd">
        <g id="vibze-hospital">
            <circle id="Oval-1" stroke="#FF7676" stroke-width="2" fill="#FF7676" cx="18" cy="18" r="15.2607422"></circle>
            <g id="Group" transform="translate(8.673991, 9.521810)" fill="#FFFFFF">
                <path d="M18.3066105,9.25818359 L16.9249795,9.25818359 C16.733969,9.25818359 16.5795718,9.41735313 16.5795718,9.61426758 L16.5795718,10.6825195 L6.9081549,10.6825195 L6.9081549,9.61426758 C6.9081549,9.41735313 6.75341223,9.25818359 6.56274715,9.25818359 L3.1086697,9.25818359 C2.91800463,9.25818359 2.76326196,9.41735313 2.76326196,9.61426758 L2.76326196,10.6825195 L2.07244647,10.6825195 L2.07244647,5.34125977 C2.07244647,5.14470141 1.9177038,4.98517578 1.72703872,4.98517578 L0.345407745,4.98517578 C0.15474267,4.98517578 0,5.14470141 0,5.34125977 L0,17.4481152 C0,17.6450297 0.15474267,17.8041992 0.345407745,17.8041992 L1.72703872,17.8041992 C1.9177038,17.8041992 2.07244647,17.6450297 2.07244647,17.4481152 L2.07244647,15.6676953 L16.5795718,15.6676953 L16.5795718,17.4481152 C16.5795718,17.6450297 16.733969,17.8041992 16.9249795,17.8041992 L18.3066105,17.8041992 C18.497621,17.8041992 18.6520182,17.6450297 18.6520182,17.4481152 L18.6520182,9.61426758 C18.6520182,9.41735313 18.497621,9.25818359 18.3066105,9.25818359 L18.3066105,9.25818359 Z M2.07244647,14.9555273 L2.07244647,14.2433594 L16.5795718,14.2433594 L16.5795718,14.9555273 L2.07244647,14.9555273 L2.07244647,14.9555273 Z" id="Shape"></path>
                <path d="M12.0892711,4.27300781 L13.8163098,4.27300781 L13.8163098,6.05342773 C13.8163098,6.24998609 13.9707071,6.40951172 14.1617175,6.40951172 L15.5433485,6.40951172 C15.734359,6.40951172 15.8887563,6.24998609 15.8887563,6.05342773 L15.8887563,4.27300781 L17.615795,4.27300781 C17.8068055,4.27300781 17.9612027,4.11348219 17.9612027,3.91692383 L17.9612027,2.49258789 C17.9612027,2.29602953 17.8068055,2.13650391 17.615795,2.13650391 L15.8887563,2.13650391 L15.8887563,0.356083984 C15.8887563,0.159525625 15.734359,0 15.5433485,0 L14.1617175,0 C13.9707071,0 13.8163098,0.159525625 13.8163098,0.356083984 L13.8163098,2.13650391 L12.0892711,2.13650391 C11.8982606,2.13650391 11.7438633,2.29602953 11.7438633,2.49258789 L11.7438633,3.91692383 C11.7438633,4.11383827 11.8982606,4.27300781 12.0892711,4.27300781 L12.0892711,4.27300781 Z" id="Shape"></path>
            </g>
        </g>
    </g>
</svg>