<?xml version="1.0" encoding="UTF-8" standalone="no"?>
<svg width="36px" height="36px" viewBox="0 0 36 36" version="1.1" xmlns="http://www.w3.org/2000/svg" xmlns:xlink="http://www.w3.org/1999/xlink">
    <!-- Generator: Sketch 3.6.1 (26313) - http://www.bohemiancoding.com/sketch -->
    <title>vibze-clinic</title>
    <desc>Created with Sketch.</desc>
    <defs></defs>
    <g id="Page-1" stroke="none" stroke-width="1" fill="none" fill-rule="evenodd">
        <g id="vibze-clinic">
            <circle id="Oval-1" stroke="#1AC4FF" stroke-width="2" fill="#1AC4FF" cx="18" cy="18" r="15.1630859"></circle>
            <path d="M26.4251273,12.5146996 L18.8820296,8.15969131 C18.5242489,7.95333092 17.9375511,7.95333092 17.5799938,8.15969131 L10.0368961,12.5146996 C9.66571543,12.7288767 9.38587823,13.2137342 9.38587823,13.6423117 L9.38587823,22.3523283 C9.38587823,22.7809057 9.66571543,23.2657633 10.0368961,23.4799404 L17.5799938,27.8349487 C17.7586608,27.9381289 17.9900346,27.995079 18.2310117,27.995079 C18.4719888,27.995079 18.7031393,27.9381289 18.8820296,27.8349487 L26.4251273,23.4799404 C26.796308,23.26554 27.0761452,22.7809057 27.0761452,22.3523283 L27.0761452,13.6423117 C27.0761452,13.2139576 26.7965313,12.7291 26.4251273,12.5146996 L26.4251273,12.5146996 Z M23.8143556,19.1139888 C23.8143556,19.4210727 23.5631052,19.6723232 23.2560212,19.6723232 L20.4643493,19.6723232 C20.1572654,19.6723232 19.9060149,19.9235737 19.9060149,20.2306576 L19.9060149,23.0223295 C19.9060149,23.3294135 19.6547644,23.5806639 19.3476805,23.5806639 L17.1143429,23.5806639 C16.807259,23.5806639 16.5560085,23.3294135 16.5560085,23.0223295 L16.5560085,20.2306576 C16.5560085,19.9235737 16.304758,19.6723232 15.9976741,19.6723232 L13.2060022,19.6723232 C12.8989182,19.6723232 12.6476678,19.4210727 12.6476678,19.1139888 L12.6476678,16.8806512 C12.6476678,16.5735673 12.8989182,16.3223168 13.2060022,16.3223168 L15.9976741,16.3223168 C16.304758,16.3223168 16.5560085,16.0710663 16.5560085,15.7639824 L16.5560085,12.9723105 C16.5560085,12.6652265 16.807259,12.4139761 17.1143429,12.4139761 L19.3476805,12.4139761 C19.6547644,12.4139761 19.9060149,12.6652265 19.9060149,12.9723105 L19.9060149,15.7639824 C19.9060149,16.0710663 20.1572654,16.3223168 20.4643493,16.3223168 L23.2560212,16.3223168 C23.5631052,16.3223168 23.8143556,16.5735673 23.8143556,16.8806512 L23.8143556,19.1139888 L23.8143556,19.1139888 Z" id="Shape" fill="#FFFFFF"></path>
        </g>
    </g>
</svg>